<?xml version="1.0" standalone="no"?>
<!DOCTYPE svg PUBLIC "-//W3C//DTD SVG 20010904//EN"
 "http://www.w3.org/TR/2001/REC-SVG-20010904/DTD/svg10.dtd">
<svg version="1.0" xmlns="http://www.w3.org/2000/svg"
 width="500.000000pt" height="500.000000pt" viewBox="0 0 500.000000 500.000000"
 preserveAspectRatio="xMidYMid meet">
<metadata>
Created by potrace 1.14, written by Peter Selinger 2001-2017
</metadata>
<g transform="translate(0.000000,500.000000) scale(0.100000,-0.100000)"
fill="#000000" stroke="none">
<path d="M2427 4188 l-33 -72 -43 62 c-37 52 -49 62 -73 62 -33 0 -36 7 39
-104 46 -68 53 -85 53 -126 0 -82 9 -110 36 -110 24 0 24 1 18 88 -6 86 -6 88
35 175 23 49 41 91 41 93 0 2 -9 4 -20 4 -16 0 -28 -17 -53 -72z"/>
<path d="M2808 4056 c-2 -97 -1 -181 0 -186 2 -6 12 -10 23 -10 18 0 28 14
122 167 l32 52 0 -132 c0 -127 1 -132 21 -135 18 -3 37 22 113 146 50 83 91
152 91 155 0 2 -8 7 -19 10 -14 3 -32 -18 -86 -109 -37 -63 -70 -114 -72 -114
-3 0 -2 61 2 135 l7 135 -25 0 c-22 0 -36 -16 -92 -110 -36 -60 -67 -110 -68
-110 -1 0 -1 61 1 135 2 83 -1 135 -7 135 -5 0 -16 3 -25 6 -13 5 -15 -17 -18
-170z"/>
<path d="M2090 4209 c-14 -4 -58 -18 -98 -30 -59 -17 -72 -24 -67 -38 4 -9 26
-81 50 -159 24 -79 46 -146 49 -150 7 -6 196 48 196 57 0 3 -4 12 -8 19 -7 9
-21 8 -67 -8 -32 -11 -64 -20 -71 -20 -11 0 -44 84 -44 111 0 4 23 12 50 19
55 13 63 19 51 39 -7 11 -18 10 -60 -4 -29 -9 -54 -15 -55 -14 -2 2 -10 27
-18 55 l-15 52 73 22 c41 12 74 25 74 28 -1 20 -17 28 -40 21z"/>
<path d="M1764 4096 c-13 -10 -25 -44 -40 -113 l-21 -98 -33 65 c-18 36 -34
67 -36 69 -2 2 -15 -1 -29 -7 l-25 -11 28 -48 c16 -27 53 -94 82 -150 54 -102
62 -111 88 -94 11 6 6 23 -23 81 -20 39 -35 74 -33 76 2 2 44 -17 92 -43 86
-44 90 -45 120 -31 l31 15 -105 53 c-58 29 -106 53 -108 55 -1 1 6 44 18 95
11 52 18 95 17 97 -2 1 -12 -4 -23 -11z"/>
<path d="M3307 3989 c-43 -22 -93 -94 -103 -146 -16 -84 33 -161 116 -183 60
-16 122 9 167 68 78 103 63 211 -38 262 -48 25 -93 25 -142 -1z m133 -36 c31
-18 50 -51 50 -86 -1 -55 -66 -148 -119 -168 -33 -13 -85 6 -106 38 -36 55 6
169 78 213 39 24 61 25 97 3z"/>
<path d="M1412 3887 c-8 -9 10 -35 69 -101 44 -48 79 -89 77 -91 -2 -2 -59 12
-128 31 -142 39 -157 40 -181 18 -17 -15 -12 -23 98 -146 103 -114 118 -127
131 -114 14 13 7 25 -59 98 -41 46 -82 93 -92 104 -16 19 -2 17 145 -23 156
-41 188 -45 188 -24 0 12 -220 261 -230 261 -4 0 -12 -6 -18 -13z"/>
<path d="M3593 3670 c-115 -118 -121 -127 -106 -143 16 -16 21 -14 75 40 54
53 59 56 74 41 15 -15 15 -23 -6 -108 l-23 -92 20 -20 21 -20 22 95 23 94 43
-5 c36 -4 46 0 68 21 48 48 26 121 -60 198 l-29 26 -122 -127z m187 -22 c0
-18 -8 -33 -25 -44 -29 -19 -53 -13 -85 21 l-24 25 39 40 39 40 28 -27 c18
-17 28 -37 28 -55z"/>
<path d="M1076 3531 c-43 -29 -76 -89 -76 -136 0 -124 183 -229 277 -159 54
40 75 83 71 142 -5 61 -26 94 -86 136 -55 39 -142 47 -186 17z m130 -47 c54
-26 104 -88 104 -130 0 -46 -45 -94 -88 -94 -60 0 -140 48 -167 100 -22 42
-18 74 11 109 21 25 33 31 66 31 22 0 55 -7 74 -16z"/>
<path d="M3830 3423 c-74 -51 -136 -98 -138 -103 -2 -5 20 -43 48 -85 42 -62
54 -74 66 -64 15 12 15 13 -33 80 l-33 47 107 73 c164 110 156 103 135 127
-17 19 -19 18 -152 -75z"/>
<path d="M2517 3322 c-3 -4 13 -39 35 -77 35 -61 98 -187 98 -198 0 -2 -23 -7
-51 -10 -44 -6 -56 -3 -83 18 -18 14 -91 52 -161 86 -71 33 -149 76 -173 95
-25 19 -49 34 -55 34 -15 0 0 -49 41 -130 50 -101 130 -179 233 -228 105 -50
106 -74 1 -34 -48 19 -48 19 -81 -4 -28 -19 -42 -22 -85 -17 l-51 6 24 -27 24
-26 -31 0 c-25 0 -32 -4 -32 -20 0 -16 -7 -20 -31 -20 -17 0 -28 -4 -24 -10 4
-6 -5 -10 -19 -10 -14 0 -26 -4 -26 -10 0 -6 -18 -7 -46 -3 -43 6 -46 5 -40
-14 8 -25 -24 -36 -76 -26 -32 6 -33 6 -15 -14 17 -20 17 -20 -34 -27 -43 -6
-49 -9 -39 -21 9 -11 10 -15 1 -15 -20 0 -40 -62 -51 -160 -22 -177 17 -373
104 -520 60 -104 172 -222 242 -256 82 -40 90 -33 148 122 l47 129 135 136
135 136 -21 35 c-19 32 -50 162 -50 209 0 27 19 24 24 -3 23 -117 40 -168 76
-223 22 -33 40 -56 40 -51 0 6 9 0 20 -12 11 -12 20 -29 20 -38 0 -16 1 -16
14 1 13 18 14 18 20 -3 4 -12 11 -20 16 -17 4 3 28 -4 51 -15 24 -11 53 -20
65 -20 12 0 34 -16 52 -39 42 -52 118 -101 156 -101 31 1 30 1 -13 23 -51 25
-85 65 -79 93 3 15 9 11 30 -22 27 -42 67 -64 116 -64 41 0 98 69 111 132 12
62 6 96 -37 188 -47 103 -102 278 -102 326 0 54 -16 94 -65 162 -20 28 -34 56
-31 61 3 5 -1 12 -10 15 -8 3 -13 10 -10 15 3 5 -1 14 -9 21 -12 10 -13 16 -4
26 9 11 5 14 -20 14 -17 0 -31 5 -31 10 0 6 5 10 10 10 6 0 10 5 10 10 0 6
-15 10 -34 10 -33 0 -36 3 -86 98 -70 130 -84 149 -144 186 -98 63 -144 87
-149 78z m327 -733 c14 -17 26 -34 26 -38 0 -18 -89 -4 -124 20 -40 27 -44 35
-18 42 54 14 90 7 116 -24z m261 -496 c19 -45 13 -66 -17 -61 -18 2 -24 11
-26 36 -3 28 11 62 24 62 2 0 11 -17 19 -37z"/>
<path d="M4115 3211 c-8 -6 -139 -61 -272 -112 l-22 -8 30 -73 c32 -79 50
-103 91 -124 75 -39 202 7 244 88 21 40 17 91 -13 168 -26 67 -38 80 -58 61z
m36 -113 c11 -41 11 -52 -4 -83 -33 -70 -165 -107 -217 -60 -19 17 -56 93 -48
100 12 13 244 102 250 97 4 -4 12 -28 19 -54z"/>
<path d="M895 3162 c-45 -29 -62 -52 -90 -120 -29 -71 -31 -92 -10 -92 8 0 76
-22 152 -50 76 -27 142 -50 148 -50 16 0 58 124 58 170 0 80 -75 147 -176 156
-40 4 -59 1 -82 -14z m111 -47 c60 -18 105 -61 106 -102 1 -35 -20 -103 -32
-103 -13 0 -234 81 -243 89 -11 11 17 72 45 97 40 37 56 39 124 19z"/>
<path d="M874 2560 c-31 -12 -72 -66 -80 -105 -13 -69 46 -142 122 -151 105
-13 181 111 124 204 -31 51 -109 75 -166 52z"/>
<path d="M4023 2551 c-88 -55 -81 -191 11 -235 40 -19 64 -20 103 -5 96 36
119 152 43 224 -39 38 -111 45 -157 16z"/>
<path d="M1185 2062 c-6 -5 -76 -33 -157 -62 -82 -29 -148 -54 -148 -55 0 -11
54 -142 65 -158 44 -63 137 -76 225 -29 91 47 110 118 66 241 -22 65 -34 78
-51 63z m25 -106 c6 -24 9 -58 5 -75 -15 -71 -137 -123 -210 -89 -22 10 -80
106 -70 117 6 6 239 90 251 91 6 0 17 -20 24 -44z"/>
<path d="M3822 2010 c-25 -15 -43 -42 -72 -103 -37 -81 -40 -97 -17 -97 7 0
77 -27 157 -60 79 -33 148 -56 152 -52 15 15 58 143 58 173 0 116 -174 202
-278 139z m156 -51 c77 -38 96 -93 61 -176 l-14 -32 -125 51 c-69 28 -127 52
-129 54 -2 2 7 24 19 49 36 75 103 95 188 54z"/>
<path d="M1230 1713 c-44 -18 -103 -69 -121 -105 -67 -131 68 -271 205 -214
52 22 114 84 127 126 17 55 4 102 -39 151 -36 40 -42 43 -98 45 -32 2 -66 1
-74 -3z m139 -57 c8 -6 20 -26 28 -44 13 -30 12 -38 -7 -75 -39 -81 -156 -132
-213 -94 -30 19 -51 69 -43 101 23 91 172 162 235 112z"/>
<path d="M3602 1638 c-7 -7 -12 -17 -11 -22 0 -6 64 -53 141 -105 116 -77 142
-91 153 -80 6 8 33 44 59 81 43 61 45 68 29 77 -16 8 -24 0 -57 -50 -23 -35
-43 -56 -50 -52 -6 3 -59 39 -118 80 -123 84 -129 88 -146 71z"/>
<path d="M3450 1463 l-60 -58 119 -122 c66 -68 124 -123 129 -123 5 0 15 7 22
16 11 13 5 23 -40 69 -35 35 -51 59 -47 69 8 21 36 20 127 -4 74 -19 75 -19
94 0 11 11 18 21 15 24 -2 2 -42 12 -88 23 l-85 20 -1 47 c0 40 -6 52 -28 72
-48 41 -87 33 -157 -33z m122 -10 c26 -23 22 -58 -9 -93 l-28 -31 -43 44 -43
44 31 27 c36 30 66 33 92 9z"/>
<path d="M1528 1481 c-1 -5 -52 -64 -112 -131 -96 -108 -107 -123 -93 -137 13
-13 25 -3 108 90 52 58 95 104 96 103 1 -1 -9 -75 -23 -166 -25 -165 -25 -194
-1 -188 18 4 232 245 232 261 0 6 -7 13 -16 15 -9 2 -47 -33 -94 -87 -43 -50
-80 -90 -81 -88 -1 1 7 68 19 149 21 143 21 147 3 167 -21 23 -32 26 -38 12z"/>
<path d="M3258 1310 c-129 -40 -156 -187 -54 -298 71 -79 208 -64 258 28 67
122 -75 311 -204 270z m82 -57 c50 -34 90 -105 90 -158 0 -50 -44 -95 -94 -95
-65 0 -145 97 -146 177 0 48 42 93 89 93 20 0 48 -8 61 -17z"/>
<path d="M1716 1123 c-61 -122 -75 -157 -65 -164 27 -17 38 -8 75 65 21 41 40
73 42 71 2 -2 10 -50 17 -106 10 -76 18 -107 31 -116 39 -28 39 -24 20 120
l-13 98 41 18 c23 9 62 26 89 36 26 10 47 21 47 26 0 23 -46 17 -125 -16 -47
-19 -87 -35 -90 -35 -3 0 10 31 29 69 l35 68 -25 12 c-14 6 -26 11 -27 10 -1
0 -37 -71 -81 -156z"/>
<path d="M3057 1193 c-4 -3 -7 -67 -7 -142 l0 -136 -71 118 c-95 159 -103 157
-107 -28 l-3 -139 -70 117 c-62 104 -73 117 -92 111 -12 -3 -23 -8 -25 -9 -4
-3 166 -284 183 -303 6 -7 19 -10 28 -6 15 5 17 24 17 138 l0 131 43 -67 c23
-37 54 -87 69 -112 21 -35 31 -43 47 -39 20 5 21 12 21 189 0 147 -3 184 -13
184 -8 0 -17 -3 -20 -7z"/>
<path d="M2007 993 c-27 -91 -45 -169 -40 -173 7 -7 172 -60 187 -60 3 0 6 9
6 19 0 15 -14 23 -65 36 -36 10 -68 22 -71 26 -4 8 24 119 30 119 2 0 23 -7
46 -15 53 -19 66 -19 73 0 5 10 -9 19 -48 31 -34 11 -55 23 -55 32 0 29 23 92
34 92 6 0 40 -9 76 -20 36 -11 66 -20 68 -20 1 0 2 9 2 19 0 16 -17 25 -87 46
-49 14 -92 27 -98 29 -5 2 -32 -71 -58 -161z"/>
<path d="M2290 1086 c0 -2 19 -43 41 -91 42 -89 42 -89 35 -177 -6 -88 -6 -88
18 -88 19 0 24 7 30 38 3 20 6 56 6 80 0 36 10 58 60 132 33 49 60 92 60 95 0
3 -10 5 -22 5 -17 0 -33 -16 -62 -60 -21 -33 -42 -60 -46 -60 -4 0 -21 29 -36
65 -25 58 -32 65 -56 65 -16 0 -28 -2 -28 -4z"/>
</g>
</svg>
